<?xml version="1.0" encoding="utf-8"?>
<!-- Generator: Adobe Illustrator 14.0.0, SVG Export Plug-In . SVG Version: 6.00 Build 43363)  -->
<!DOCTYPE svg PUBLIC "-//W3C//DTD SVG 1.1//EN" "http://www.w3.org/Graphics/SVG/1.1/DTD/svg11.dtd">
<svg version="1.1" id="Layer_1" xmlns="http://www.w3.org/2000/svg" xmlns:xlink="http://www.w3.org/1999/xlink" x="0px" y="0px"
	 width="540px" height="250px" viewBox="0 0 540 250" enable-background="new 0 0 540 250" xml:space="preserve">
<g>
	<defs>
		<rect id="SVGID_1_" width="540" height="250"/>
	</defs>
	<clipPath id="SVGID_2_">
		<use xlink:href="#SVGID_1_"  overflow="visible"/>
	</clipPath>
	<path clip-path="url(#SVGID_2_)" fill="#9E9E9E" d="M439.708,119.521c0.933-14.8,4.933-21.734,12.533-21.734
		c7.467,0,11.334,7.067,11.867,21.734H439.708z M495.175,128.321c0-16.534-3.6-29.6-10.667-38.8c-7.2-9.334-18-14.134-31.732-14.134
		c-28.135,0-45.601,20.8-45.601,54.134c0,18.665,4.666,32.665,13.866,41.6c8.267,8,20.134,12,35.467,12
		c14.133,0,27.2-3.334,35.467-8.8l-3.6-22.667c-8.134,4.399-17.6,6.8-28.267,6.8c-6.4,0-10.801-1.333-14-4.133
		c-3.468-2.935-5.468-7.734-6.134-14.534h54.801C494.908,138.187,495.175,130.721,495.175,128.321 M362.908,150.721
		c-2.667,5.066-6.8,7.733-11.601,7.733c-3.333,0-6.267-0.667-8.933-2v-49.333c5.6-5.867,10.666-6.534,12.533-6.534
		c8.399,0,12.533,9.067,12.533,26.8C367.441,137.521,365.975,145.387,362.908,150.721 M390.375,86.721
		c-5.867-7.6-14-11.334-24.4-11.334c-9.6,0-18,4-25.866,12.4l-1.733-10.4h-29.067v142.134l33.067-5.468v-33.333
		c5.066,1.601,10.266,2.4,14.933,2.4c8.268,0,20.268-2.134,29.601-12.268c8.933-9.732,13.467-24.8,13.467-44.667
		C400.375,108.587,397.041,95.254,390.375,86.721 M263.092,77.387h33.2V181.12h-33.2V77.387z M279.759,67.121
		c9.601,0,17.333-7.867,17.333-17.467c0-9.733-7.732-17.467-17.333-17.467c-9.734,0-17.467,7.734-17.467,17.467
		C262.292,59.254,270.025,67.121,279.759,67.121 M248.825,75.955c-9.333,0-16.8,4.899-19.733,13.699l-2-12.267h-28.933v103.734
		h33.066v-67.334c4.134-5.066,10-6.899,18-6.899c1.734,0,3.6,0,5.867,0.4V76.755C252.825,76.221,250.825,75.955,248.825,75.955
		 M185.409,101.921l4-24.534h-21.117V47.605L139.9,52.277l-4.1,25.11l-9.986,1.62l-3.738,22.914h13.683v48.133
		c0,12.533,3.2,21.2,9.733,26.533c5.467,4.4,13.333,6.534,24.4,6.534c8.533,0,13.733-1.467,17.333-2.4v-26
		c-2,0.533-6.533,1.466-9.6,1.466c-6.533,0-9.333-3.333-9.333-10.933v-43.333H185.409z M90.692,116.454
		c-9.733-3.6-15.067-6.4-15.067-10.8c0-3.733,3.067-5.867,8.534-5.867c10,0,20.266,3.867,27.333,7.334l4-24.667
		c-5.6-2.667-17.067-7.067-32.933-7.067c-11.2,0-20.534,2.934-27.2,8.4c-6.934,5.734-10.534,14-10.534,24
		c0,18.134,11.067,25.867,29.067,32.399c11.6,4.135,15.467,7.067,15.467,11.601c0,4.399-3.734,6.934-10.534,6.934
		c-8.4,0-22.266-4.134-31.333-9.467l-4,24.933c7.733,4.4,22.133,8.935,37.067,8.935c11.866,0,21.733-2.8,28.4-8.134
		c7.466-5.866,11.333-14.533,11.333-25.733C120.292,130.721,108.959,122.987,90.692,116.454"/>
</g>
</svg>
